#!OML:ASF E:\Style6\Style6.ASF
:FULLY-SPECIFIED
:DEGREES
2897
root 0.421668 17.2577 -1.24562 7.19871 -4.18838 -2.17304
lowerback 16.4844 -1.39567 3.94502
upperback 14.2814 -1.53091 2.3345
thorax 6.14493 -0.602371 0.442933
lowerneck 6.97162 -0.341983 1.30818
upperneck -10.8849 -1.10597 -6.67429
head -4.44464 -0.217459 -2.20351
rclavicle 7.15625e-015 -2.10712e-014
rhumerus 41.3926 11.1079 -66.8685
rradius 52.0684
rwrist 38.4699
rhand -5.50859 8.05641
rfingers 7.12502
rthumb 20.3047 -20.9022
lclavicle 7.15625e-015 -2.10712e-014
lhumerus 40.4269 -14.4192 57.8204
lradius 54.7922
lwrist -8.17313
lhand -11.2467 22.1931
lfingers 7.12502
lthumb 14.7829 51.6459
rfemur -34.8808 -6.08731 22.5652
rtibia 42.2956
rfoot -8.1968 -4.85942
rtoes -9.75912
lfemur -33.5297 7.44583 -17.0182
ltibia 46.4556
lfoot -13.3198 5.59325
ltoes -17.5246
2898
root 0.424767 17.329 -1.23886 7.82372 -4.26664 -2.04949
lowerback 16.2594 -1.32998 3.76642
upperback 14.0363 -1.46714 2.38563
thorax 5.98641 -0.590136 0.585282
lowerneck 6.56132 -0.352922 1.24096
upperneck -10.1865 -1.09494 -6.75157
head -4.16259 -0.226081 -2.21182
rclavicle -2.78299e-015 2.78299e-014
rhumerus 41.1669 11.0764 -67.0662
rradius 51.651
rwrist 38.174
rhand -5.57854 8.10091
rfingers 7.12502
rthumb 20.2375 -20.8648
lclavicle -2.78299e-015 2.78299e-014
lhumerus 40.2934 -14.5302 58.2427
lradius 54.3483
lwrist -7.57699
lhand -11.1104 22.1629
lfingers 7.12502
lthumb 14.9142 51.606
rfemur -34.7706 -5.51748 22.3615
rtibia 40.8928
rfoot -7.66721 -5.38838
rtoes -8.45242
lfemur -33.46 7.02324 -17.1868
ltibia 45.1928
lfoot -12.645 5.98088
ltoes -17.878
2899
root 0.428146 17.399 -1.23143 8.43465 -4.28624 -2.07262
lowerback 16.0672 -1.31872 3.73465
upperback 13.7852 -1.45693 2.46695
thorax 5.80427 -0.594578 0.684385
lowerneck 6.24566 -0.287222 1.16703
upperneck -9.23034 -0.948654 -6.6384
head -4.22999 -0.197525 -2.41044
rclavicle -5.56597e-015 3.69739e-014
rhumerus 41.0182 11.1436 -67.2236
rradius 51.1226
rwrist 37.8117
rhand -5.76187 8.10611
rfingers 7.12502
rthumb 20.0613 -20.8782
lclavicle -5.56597e-015 3.69739e-014
lhumerus 40.0608 -14.6424 58.5247
lradius 54.0304
lwrist -6.89645
lhand -11.0685 22.3776
lfingers 7.12502
lthumb 14.9545 51.8177
rfemur -34.5839 -4.95824 22.3005
rtibia 39.4347
rfoot -7.07072 -5.95663
rtoes -8.47601
lfemur -33.3731 6.63126 -17.191
ltibia 43.9169
lfoot -11.9342 6.36158
ltoes -18.6722
2900
root 0.431221 17.4671 -1.22416 9.0941 -4.28294 -2.23339
lowerback 15.8945 -1.33499 3.83522
upperback 13.4921 -1.46497 2.534
thorax 5.56348 -0.597852 0.696704
lowerneck 5.97241 -0.190045 1.16396
upperneck -8.61738 -0.78048 -6.64335
head -3.94844 -0.128799 -2.40508
rclavicle 1.98785e-014 -4.37326e-015
rhumerus 40.8723 11.2407 -67.4734
rradius 50.4951
rwrist 37.5761
rhand -6.01028 8.10321
rfingers 7.12502
rthumb 19.8225 -20.906
lclavicle 1.98785e-014 -4.37326e-015
lhumerus 39.8318 -14.7785 58.6544
lradius 53.6784
lwrist -6.37029
lhand -10.9418 22.7892
lfingers 7.12502
lthumb 15.0765 52.2202
rfemur -34.4147 -4.40866 22.3842
rtibia 37.9349
rfoot -6.46338 -6.41855
rtoes -8.32466
lfemur -33.3335 6.22029 -17.0124
ltibia 42.6461
lfoot -11.2878 6.64276
ltoes -18.4137
2901
root 0.434119 17.5325 -1.21656 9.76752 -4.3204 -2.38078
lowerback 15.7316 -1.33857 3.88638
upperback 13.1674 -1.45983 2.60913
thorax 5.28447 -0.599572 0.743743
lowerneck 5.71226 -0.105932 1.06063
upperneck -7.9515 -0.632758 -6.60116
head -3.65359 -0.0698072 -2.36273
rclavicle 1.11319e-014 2.78299e-015
rhumerus 40.7414 11.3646 -67.6777
rradius 49.8157
rwrist 37.4313
rhand -5.96801 8.10622
rfingers 7.12502
rthumb 19.8631 -20.8987
lclavicle 1.11319e-014 2.78299e-015
lhumerus 39.5735 -14.8886 58.8526
lradius 53.2652
lwrist -6.11873
lhand -10.8491 23.0683
lfingers 7.12502
lthumb 15.1658 52.4925
rfemur -34.2386 -3.80306 22.4255
rtibia 36.3991
rfoot -5.85607 -6.90948
rtoes -7.31315
lfemur -33.2918 5.76999 -16.8152
ltibia 41.3902
lfoot -10.6981 6.93431
ltoes -17.7247
2902
root 0.438212 17.5986 -1.20889 10.4515 -4.37757 -2.46522
lowerback 15.5453 -1.32897 3.84223
upperback 12.8449 -1.4491 2.69591
thorax 5.02342 -0.605675 0.85516
lowerneck 5.42702 -0.00299192 0.957416
upperneck -7.32181 -0.465637 -6.61019
head -3.37022 0.000704439 -2.33936
rclavicle 1.31198e-014 1.86858e-014
rhumerus 40.6277 11.4848 -67.8209
rradius 49.1283
rwrist 37.5167
rhand -5.903 7.91072
rfingers 7.12502
rthumb 19.9256 -21.0878
lclavicle 1.31198e-014 1.86858e-014
lhumerus 39.3337 -14.952 59.0559
lradius 52.8782
lwrist -5.92481
lhand -10.7085 23.4275
lfingers 7.12502
lthumb 15.3012 52.8414
rfemur -34.0694 -3.16854 22.3745
rtibia 34.8348
rfoot -5.16927 -7.49181
rtoes -7.32387
lfemur -33.2524 5.29092 -16.6645
ltibia 40.133
lfoot -10.1399 7.18223
ltoes -17.0566
2903
root 0.44083 17.6631 -1.20025 11.1513 -4.40477 -2.50051
lowerback 15.2667 -1.32109 3.74319
upperback 12.5535 -1.45268 2.77523
thorax 4.84787 -0.620648 0.989007
lowerneck 5.2391 0.0837058 0.935857
upperneck -6.911 -0.328905 -6.65336
head -3.18655 0.060275 -2.34624
rclavicle -1.63003e-014 -1.11319e-014
rhumerus 40.5698 11.5807 -67.9231
rradius 48.4209
rwrist 37.8428
rhand -5.78743 7.71477
rfingers 7.12502
rthumb 20.0367 -21.2721
lclavicle -1.63003e-014 -1.11319e-014
lhumerus 39.1844 -14.969 59.166
lradius 52.5508
lwrist -5.71343
lhand -10.488 23.746
lfingers 7.12502
lthumb 15.5137 53.1436
rfemur -33.9148 -2.58679 22.271
rtibia 33.2564
rfoot -4.47688 -8.09511
rtoes -8.67309
lfemur -33.2436 4.84697 -16.571
ltibia 38.8599
lfoot -9.42856 7.43746
ltoes -17.2994
2904
root 0.444461 17.7247 -1.19084 11.7984 -4.4123 -2.53564
lowerback 14.9874 -1.32748 3.69355
upperback 12.2894 -1.47011 2.82522
thorax 4.70296 -0.636819 1.06566
lowerneck 5.15778 0.169363 0.948119
upperneck -6.6819 -0.199307 -6.66355
head -3.08684 0.119228 -2.35213
rclavicle 1.03368e-014 -2.22639e-014
rhumerus 40.5393 11.6753 -67.9858
rradius 47.7151
rwrist 38.0959
rhand -5.48701 7.96566
rfingers 7.12502
rthumb 20.3254 -20.9907
lclavicle 1.03368e-014 -2.22639e-014
lhumerus 39.064 -14.9376 59.3072
lradius 52.2479
lwrist -5.66621
lhand -10.0643 23.9915
lfingers 7.12502
lthumb 15.9217 53.357
rfemur -33.6662 -1.96246 22.1159
rtibia 31.6549
rfoot -3.80678 -8.71163
rtoes -9.46592
lfemur -33.1909 4.3707 -16.454
ltibia 37.5975
lfoot -8.71064 7.71958
ltoes -17.4153
2905
root 0.447588 17.7835 -1.18165 12.4211 -4.38317 -2.56844
lowerback 14.7259 -1.35626 3.61473
upperback 12.0452 -1.51888 2.86262
thorax 4.57211 -0.669555 1.14892
lowerneck 5.04329 0.272164 1.03082
upperneck -6.52294 -0.0462472 -6.69571
head -3.00474 0.189585 -2.38001
rclavicle 1.31198e-014 -1.74931e-014
rhumerus 40.5693 11.7579 -68.0706
rradius 47.0423
rwrist 38.3562
rhand -5.27784 8.14634
rfingers 7.12502
rthumb 20.5264 -20.7885
lclavicle 1.31198e-014 -1.74931e-014
lhumerus 38.9833 -14.9198 59.2541
lradius 51.9857
lwrist -5.47561
lhand -9.67021 24.2031
lfingers 7.12502
lthumb 16.3012 53.5379
rfemur -33.3703 -1.29024 21.9173
rtibia 30.0475
rfoot -3.09985 -9.29652
rtoes -10.484
lfemur -33.1529 3.87545 -16.3217
ltibia 36.3922
lfoot -8.03387 7.99227
ltoes -17.5256
2906
root 0.450481 17.8378 -1.17239 13.0351 -4.3198 -2.63902
lowerback 14.4904 -1.3824 3.59137
upperback 11.803 -1.55712 2.9113
thorax 4.43071 -0.693677 1.21244
lowerneck 4.99662 0.366142 1.15507
upperneck -6.55894 0.0858272 -6.73881
head -3.00328 0.253571 -2.42278
rclavicle 7.95139e-015 5.1684e-015
rhumerus 40.5877 11.7836 -68.1404
rradius 46.4449
rwrist 38.6185
rhand -5.20069 8.06258
rfingers 7.12502
rthumb 20.6006 -20.8643
lclavicle 7.95139e-015 5.1684e-015
lhumerus 38.973 -15.0111 59.0657
lradius 51.826
lwrist -5.04769
lhand -9.47562 24.398
lfingers 7.12502
lthumb 16.4886 53.7174
rfemur -33.09 -0.602993 21.7359
rtibia 28.4674
rfoot -2.42183 -9.91126
rtoes -11.4167
lfemur -33.1315 3.42319 -16.151
ltibia 35.2634
lfoot -7.42395 8.21797
ltoes -17.9519
2907
root 0.452667 17.8864 -1.16377 13.578 -4.24893 -2.75917
lowerback 14.3227 -1.35293 3.70688
upperback 11.5628 -1.5062 3.00733
thorax 4.25644 -0.666668 1.24046
lowerneck 5.12908 0.374229 1.16744
upperneck -6.82577 0.0796593 -6.76968
head -3.12043 0.258337 -2.4424
rclavicle -4.37326e-015 7.15625e-015
rhumerus 40.5164 11.7013 -67.9737
rradius 45.9493
rwrist 38.7059
rhand -5.02133 7.99721
rfingers 7.12502
rthumb 20.7729 -20.9109
lclavicle -4.37326e-015 7.15625e-015
lhumerus 39.0024 -15.2615 59.0465
lradius 51.7429
lwrist -4.52347
lhand -9.40865 24.4548
lfingers 7.12502
lthumb 16.553 53.7688
rfemur -32.7838 0.161217 21.5819
rtibia 26.9617
rfoot -1.92894 -10.7242
rtoes -11.0207
lfemur -33.0547 2.98042 -15.9086
ltibia 34.2083
lfoot -6.89808 8.4397
ltoes -18.4204
2908
root 0.453767 17.9297 -1.15786 14.0855 -4.15848 -2.84009
lowerback 14.1639 -1.34841 3.73625
upperback 11.3753 -1.49875 3.12444
thorax 4.13809 -0.66721 1.34344
lowerneck 5.29352 0.419666 1.05624
upperneck -7.26247 0.104059 -6.79287
head -3.3007 0.285145 -2.44215
rclavicle -1.43125e-014 1.47101e-014
rhumerus 40.4946 11.7039 -67.7409
rradius 45.6008
rwrist 38.7245
rhand -4.90139 7.87068
rfingers 7.12502
rthumb 20.8882 -21.0248
lclavicle -1.43125e-014 1.47101e-014
lhumerus 39.0219 -15.327 59.0915
lradius 51.7051
lwrist -4.15094
lhand -9.211 24.4917
lfingers 7.12502
lthumb 16.7433 53.7897
rfemur -32.5072 1.0316 21.33
rtibia 25.5873
rfoot -1.71872 -11.6861
rtoes -8.92642
lfemur -33.0038 2.47694 -15.6754
ltibia 33.1882
lfoot -6.34952 8.70564
ltoes -19.0905
